<svg width="472" height="200" viewBox="0 0 472 200" fill="none" xmlns="http://www.w3.org/2000/svg">
<path d="M200 100C200 155.228 155.228 200 100 200C44.7715 200 0 155.228 0 100C0 44.7715 44.7715 0 100 0C155.228 0 200 44.7715 200 100Z" fill="#374821"/>
<path d="M300 100C300 155.228 255.228 200 200 200C144.772 200 100 155.228 100 100C100 44.7715 144.772 0 200 0C255.228 0 300 44.7715 300 100Z" fill="#4B7418"/>
<path d="M389.5 100C389.5 155.228 344.728 200 289.5 200C234.272 200 189.5 155.228 189.5 100C189.5 44.7715 234.272 0 289.5 0C344.728 0 389.5 44.7715 389.5 100Z" fill="#7BB82E"/>
<circle cx="372" cy="100" r="100" fill="#B4FF54"/>
</svg>
